<svg width="18" height="20" viewBox="0 0 18 20" fill="none" xmlns="http://www.w3.org/2000/svg">
<path d="M11.7501 8.19L12.3801 8.32L16.5501 10.4C17.2501 10.63 17.7101 11.32 17.6501 12.06V12.19V12.32L16.7501 18.44C16.6901 18.87 16.5001 19.27 16.1501 19.55C15.8401 19.85 15.4301 20 15.0001 20H8.12011C7.63011 20 7.18011 19.82 6.85011 19.47L0.860107 13.5L1.76011 12.5C2.00011 12.25 2.38011 12.11 2.74011 12.13H3.03011L7.00011 13V2.5C7.00011 1.96957 7.21082 1.46086 7.58589 1.08579C7.96097 0.710714 8.46967 0.5 9.00011 0.5C9.53054 0.5 10.0392 0.710714 10.4143 1.08579C10.7894 1.46086 11.0001 1.96957 11.0001 2.5V8.19H11.7501Z" fill="#FFC000"/>
</svg>
